<?xml version="1.0" encoding="UTF-8" standalone="no"?>
<!-- Created with Inkscape (http://www.inkscape.org/) -->

<svg
   xmlns:dc="http://purl.org/dc/elements/1.1/"
   xmlns:cc="http://creativecommons.org/ns#"
   xmlns:rdf="http://www.w3.org/1999/02/22-rdf-syntax-ns#"
   xmlns:svg="http://www.w3.org/2000/svg"
   xmlns="http://www.w3.org/2000/svg"
   xmlns:xlink="http://www.w3.org/1999/xlink"
   xmlns:sodipodi="http://sodipodi.sourceforge.net/DTD/sodipodi-0.dtd"
   xmlns:inkscape="http://www.inkscape.org/namespaces/inkscape"
   width="210mm"
   height="297mm"
   viewBox="0 0 744.09448819 1052.3622047"
   id="svg2"
   version="1.1"
   inkscape:version="0.91 r13725"
   sodipodi:docname="RemoteQueryPY.svg">
  <defs
     id="defs4">
    <linearGradient
       id="linearGradient2795">
      <stop
         style="stop-color:#b8b8b8;stop-opacity:0.49803922"
         offset="0"
         id="stop2797" />
      <stop
         style="stop-color:#7f7f7f;stop-opacity:0"
         offset="1"
         id="stop2799" />
    </linearGradient>
    <linearGradient
       id="linearGradient2787">
      <stop
         style="stop-color:#7f7f7f;stop-opacity:0.5"
         offset="0"
         id="stop2789" />
      <stop
         style="stop-color:#7f7f7f;stop-opacity:0"
         offset="1"
         id="stop2791" />
    </linearGradient>
    <linearGradient
       id="linearGradient3676">
      <stop
         style="stop-color:#b2b2b2;stop-opacity:0.5"
         offset="0"
         id="stop3678" />
      <stop
         style="stop-color:#b3b3b3;stop-opacity:0"
         offset="1"
         id="stop3680" />
    </linearGradient>
    <linearGradient
       id="linearGradient3236">
      <stop
         style="stop-color:#f4f4f4;stop-opacity:1"
         offset="0"
         id="stop3244" />
      <stop
         style="stop-color:#ffffff;stop-opacity:1"
         offset="1"
         id="stop3240" />
    </linearGradient>
    <linearGradient
       id="linearGradient4671">
      <stop
         style="stop-color:#ffd43b;stop-opacity:1"
         offset="0"
         id="stop4673" />
      <stop
         style="stop-color:#ffe873;stop-opacity:1"
         offset="1"
         id="stop4675" />
    </linearGradient>
    <linearGradient
       id="linearGradient4689">
      <stop
         style="stop-color:#5a9fd4;stop-opacity:1"
         offset="0"
         id="stop4691" />
      <stop
         style="stop-color:#306998;stop-opacity:1"
         offset="1"
         id="stop4693" />
    </linearGradient>
    <linearGradient
       x1="224.23996"
       y1="144.75717"
       x2="-65.308502"
       y2="144.75717"
       id="linearGradient2987"
       xlink:href="#linearGradient4671"
       gradientUnits="userSpaceOnUse"
       gradientTransform="translate(100.2702,99.61116)" />
    <linearGradient
       x1="172.94208"
       y1="77.475983"
       x2="26.670298"
       y2="76.313133"
       id="linearGradient2990"
       xlink:href="#linearGradient4689"
       gradientUnits="userSpaceOnUse"
       gradientTransform="translate(100.2702,99.61116)" />
    <linearGradient
       x1="172.94208"
       y1="77.475983"
       x2="26.670298"
       y2="76.313133"
       id="linearGradient2587"
       xlink:href="#linearGradient4689"
       gradientUnits="userSpaceOnUse"
       gradientTransform="translate(100.2702,99.61116)" />
    <linearGradient
       x1="224.23996"
       y1="144.75717"
       x2="-65.308502"
       y2="144.75717"
       id="linearGradient2589"
       xlink:href="#linearGradient4671"
       gradientUnits="userSpaceOnUse"
       gradientTransform="translate(100.2702,99.61116)" />
    <linearGradient
       x1="172.94208"
       y1="77.475983"
       x2="26.670298"
       y2="76.313133"
       id="linearGradient2248"
       xlink:href="#linearGradient4689"
       gradientUnits="userSpaceOnUse"
       gradientTransform="translate(100.2702,99.61116)" />
    <linearGradient
       x1="224.23996"
       y1="144.75717"
       x2="-65.308502"
       y2="144.75717"
       id="linearGradient2250"
       xlink:href="#linearGradient4671"
       gradientUnits="userSpaceOnUse"
       gradientTransform="translate(100.2702,99.61116)" />
    <linearGradient
       x1="224.23996"
       y1="144.75717"
       x2="-65.308502"
       y2="144.75717"
       id="linearGradient2255"
       xlink:href="#linearGradient4671"
       gradientUnits="userSpaceOnUse"
       gradientTransform="matrix(0.562541,0,0,0.567972,-11.5974,-7.60954)" />
    <linearGradient
       x1="172.94208"
       y1="76.176224"
       x2="26.670298"
       y2="76.313133"
       id="linearGradient2258"
       xlink:href="#linearGradient4689"
       gradientUnits="userSpaceOnUse"
       gradientTransform="matrix(0.562541,0,0,0.567972,-11.5974,-7.60954)" />
    <radialGradient
       cx="61.518883"
       cy="132.28575"
       r="29.036913"
       fx="61.518883"
       fy="132.28575"
       id="radialGradient2801"
       xlink:href="#linearGradient2795"
       gradientUnits="userSpaceOnUse"
       gradientTransform="matrix(1,0,0,0.177966,0,108.7434)" />
    <linearGradient
       x1="150.96111"
       y1="192.35176"
       x2="112.03144"
       y2="137.27299"
       id="linearGradient1475"
       xlink:href="#linearGradient4671"
       gradientUnits="userSpaceOnUse"
       gradientTransform="matrix(0.562541,0,0,0.567972,-9.399749,-5.305317)" />
    <linearGradient
       x1="26.648937"
       y1="20.603781"
       x2="135.66525"
       y2="114.39767"
       id="linearGradient1478"
       xlink:href="#linearGradient4689"
       gradientUnits="userSpaceOnUse"
       gradientTransform="matrix(0.562541,0,0,0.567972,-9.399749,-5.305317)" />
    <radialGradient
       cx="61.518883"
       cy="132.28575"
       r="29.036913"
       fx="61.518883"
       fy="132.28575"
       id="radialGradient1480"
       xlink:href="#linearGradient2795"
       gradientUnits="userSpaceOnUse"
       gradientTransform="matrix(2.382716e-8,-0.296405,1.43676,4.683673e-7,-128.544,150.5202)" />
  </defs>
  <sodipodi:namedview
     id="base"
     pagecolor="#ffffff"
     bordercolor="#666666"
     borderopacity="1.0"
     inkscape:pageopacity="0.0"
     inkscape:pageshadow="2"
     inkscape:zoom="0.79725402"
     inkscape:cx="163.83256"
     inkscape:cy="567.57318"
     inkscape:document-units="px"
     inkscape:current-layer="layer1"
     showgrid="false"
     inkscape:window-width="1631"
     inkscape:window-height="1005"
     inkscape:window-x="120"
     inkscape:window-y="48"
     inkscape:window-maximized="0" />
  <metadata
     id="metadata7">
    <rdf:RDF>
      <cc:Work
         rdf:about="">
        <dc:format>image/svg+xml</dc:format>
        <dc:type
           rdf:resource="http://purl.org/dc/dcmitype/StillImage" />
        <dc:title />
      </cc:Work>
    </rdf:RDF>
  </metadata>
  <g
     inkscape:label="Layer 1"
     inkscape:groupmode="layer"
     id="layer1">
    <text
       xml:space="preserve"
       style="font-style:normal;font-weight:normal;font-size:33.28589249px;line-height:125%;font-family:sans-serif;letter-spacing:0px;word-spacing:0px;fill:#42a29a;fill-opacity:1;stroke:none;stroke-width:1px;stroke-linecap:butt;stroke-linejoin:miter;stroke-opacity:1"
       x="114.27671"
       y="558.35535"
       id="text4136"
       sodipodi:linespacing="125%"
       inkscape:export-xdpi="203.2"
       inkscape:export-ydpi="203.2"><tspan
         sodipodi:role="line"
         id="tspan4138"
         x="114.27671"
         y="558.35535"
         style="font-style:normal;font-variant:normal;font-weight:normal;font-stretch:normal;font-family:Roboto;-inkscape-font-specification:Roboto;fill:#42a29a;fill-opacity:1"><tspan
   style="font-style:normal;font-variant:normal;font-weight:500;font-stretch:normal;font-family:Roboto;-inkscape-font-specification:'Roboto Medium';fill:#42a29a;fill-opacity:1"
   id="tspan4140">R</tspan>emote<tspan
   style="font-style:normal;font-variant:normal;font-weight:500;font-stretch:normal;font-family:Roboto;-inkscape-font-specification:'Roboto Medium';fill:#42a29a;fill-opacity:1"
   id="tspan4146">Q</tspan>uery</tspan></text>
    <text
       xml:space="preserve"
       style="font-style:normal;font-weight:normal;font-size:32.14788055px;line-height:125%;font-family:sans-serif;letter-spacing:0px;word-spacing:0px;fill:#000000;fill-opacity:1;stroke:none;stroke-width:1px;stroke-linecap:butt;stroke-linejoin:miter;stroke-opacity:1"
       x="81.409531"
       y="872.85156"
       id="text4148"
       sodipodi:linespacing="125%"
       transform="scale(0.95298922,1.0493298)"><tspan
         sodipodi:role="line"
         id="tspan4150"
         x="81.409531"
         y="872.85156"
         style="font-size:13.75px">Definition</tspan><tspan
         sodipodi:role="line"
         x="81.409531"
         y="890.03906"
         id="tspan4152"
         style="font-size:13.75px">#42a29a</tspan><tspan
         sodipodi:role="line"
         x="81.409531"
         y="907.22656"
         id="tspan4154"
         style="font-size:13.75px">Roboto</tspan></text>
    <g
       id="g4239"
       transform="matrix(0.39160668,0,0,0.39160668,333.17447,355.81982)"
       inkscape:export-xdpi="203.2"
       inkscape:export-ydpi="203.2">
      <g
         id="g4241">
        <polygon
           id="polygon4243"
           points="27.836,68.722 45.373,38.347 62.911,68.722 45.366,99.143 45.366,99.143 "
           style="fill:#59666c" />
        <polygon
           id="polygon4245"
           points="80.458,38.348 45.383,38.348 62.921,68.723 98.005,68.722 "
           style="fill:#bcae79" />
        <polygon
           id="polygon4247"
           points="115.523,99.157 97.986,129.532 80.449,99.157 97.993,68.736 97.993,68.736 "
           style="fill:#59666c" />
        <polygon
           id="polygon4249"
           points="62.901,129.529 97.977,129.529 80.438,99.154 45.354,99.157 "
           style="fill:#bcae79" />
      </g>
      <polygon
         id="polygon4251"
         points="141.156,98.705 141.156,71.771 169.514,71.771 169.514,98.705 179.113,98.705 179.113,38.702 169.514,38.702 169.514,63.503 141.156,63.503 141.156,38.702 131.468,38.702 131.468,98.705 "
         style="fill:#59666c" />
      <polygon
         id="polygon4253"
         points="206.918,98.705 206.918,38.702 197.228,38.702 197.228,98.705 "
         style="fill:#59666c" />
      <path
         id="path4255"
         d="m 264.938,80.57 c 0,-6.223 -3.644,-12.178 -11.467,-13.688 l 0,-0.179 c 6.134,-2.134 10.223,-7.556 10.223,-13.689 0,-9.245 -6.756,-14.578 -19.823,-14.578 -7.289,0 -14.134,0.178 -18.846,0.267 l 0,60.003 c 6.668,0.089 12.712,0.267 16.356,0.267 18.402,0 23.557,-10.578 23.557,-18.403 l 0,0 z M 253.56,54.525 c 0,6.044 -4.71,9.689 -13.688,9.689 -2.045,0 -3.556,0 -5.155,-0.089 l 0,-17.778 c 2.311,-0.089 4.889,-0.178 7.556,-0.178 8.532,0 11.287,3.467 11.287,8.356 l 0,0 z m 1.156,26.223 c 0,6.046 -4.178,10.312 -12.979,10.312 -3.111,0 -5.511,-0.18 -7.021,-0.445 l 0,-19.111 c 1.333,-0.09 4.443,-0.09 5.422,-0.09 8.445,0 14.578,2.49 14.578,9.334 l 0,0 z"
         inkscape:connector-curvature="0"
         style="fill:#59666c" />
      <polygon
         id="polygon4257"
         points="310.894,46.791 310.894,38.702 279.247,38.702 279.247,98.705 310.894,98.705 310.894,90.438 288.938,90.438 288.938,71.771 309.827,71.771 309.827,63.859 288.938,63.859 288.938,46.791 "
         style="fill:#59666c" />
      <path
         id="path4259"
         d="M 366.966,98.705 351.144,77.814 c -1.512,-1.955 -3.377,-4.267 -5.065,-6.4 9.777,-1.065 16.979,-7.199 16.979,-16.8 0,-11.912 -8.533,-16.268 -20.979,-16.268 -6.756,0 -11.733,0.089 -16.089,0.355 l 0,60.003 9.688,0 0,-25.956 0.444,0 18.668,25.957 12.176,0 0,0 z M 352.922,55.681 c 0,5.956 -4.711,9.956 -12.534,9.956 -2.134,0 -3.82,-0.089 -4.711,-0.178 l 0,-19.023 c 1.423,-0.089 3.201,-0.178 5.066,-0.178 8.09,0 12.179,2.845 12.179,9.423 l 0,0 z"
         inkscape:connector-curvature="0"
         style="fill:#59666c" />
      <path
         id="path4261"
         d="m 427.562,98.705 0,-60.003 -9.425,0 0,17.778 c 0,8.801 0.27,21.69 0.624,28.536 -2.223,-4.356 -4.622,-9.157 -7.291,-13.603 l -19.821,-32.712 -12.714,0 0,60.003 9.426,0 0,-20.178 c 0,-8.534 -0.179,-20.712 -0.535,-26.579 1.867,4 4,8.267 6.669,12.622 l 20.533,34.136 12.534,0 0,0 z"
         inkscape:connector-curvature="0"
         style="fill:#bcae79" />
      <path
         id="path4263"
         d="m 491.638,98.705 -21.778,-60.003 -10.758,0 -21.51,60.003 9.777,0 4.622,-13.246 24.268,0 4.622,13.246 10.757,0 0,0 z m -17.956,-20.979 -19.202,0 6.756,-18.578 c 1.155,-3.2 2.134,-6.489 2.758,-9.512 l 0.177,0 c 0.711,3.289 1.51,6.134 2.667,9.245 l 6.844,18.845 0,0 z"
         inkscape:connector-curvature="0"
         style="fill:#bcae79" />
      <polygon
         id="polygon4265"
         points="532.252,46.88 532.252,38.702 489.583,38.702 489.583,46.88 506.029,46.88 506.029,98.705 515.717,98.705 515.717,46.88 "
         style="fill:#bcae79" />
      <polygon
         id="polygon4267"
         points="573.922,46.791 573.922,38.702 542.274,38.702 542.274,98.705 573.922,98.705 573.922,90.438 551.965,90.438 551.965,71.771 572.854,71.771 572.854,63.859 551.965,63.859 551.965,46.791 "
         style="fill:#bcae79" />
    </g>
    <g
       id="g4317"
       transform="matrix(0.52592196,0,0,0.4120323,27.775416,105.81479)"
       inkscape:export-xdpi="203.2"
       inkscape:export-ydpi="203.2">
      <circle
         r="43.273537"
         cy="650.35736"
         cx="528.6897"
         id="path4308"
         style="opacity:1;fill:#ff0000;fill-opacity:1;fill-rule:nonzero;stroke:#000000;stroke-width:1;stroke-linecap:round;stroke-linejoin:round;stroke-miterlimit:22.5;stroke-dasharray:1, 4;stroke-dashoffset:0;stroke-opacity:0.63137255" />
      <text
         transform="scale(0.84569117,1.1824648)"
         sodipodi:linespacing="125%"
         id="text4290"
         y="581.42706"
         x="574.80914"
         style="font-style:normal;font-weight:normal;font-size:88.38076019px;line-height:125%;font-family:sans-serif;letter-spacing:0px;word-spacing:0px;fill:#ececec;fill-opacity:1;stroke:none;stroke-width:1px;stroke-linecap:butt;stroke-linejoin:miter;stroke-opacity:1"
         xml:space="preserve"><tspan
           style="font-style:normal;font-variant:normal;font-weight:normal;font-stretch:normal;font-family:Phosphate;-inkscape-font-specification:Phosphate;fill:#ececec"
           y="581.42706"
           x="574.80914"
           id="tspan4292"
           sodipodi:role="line">VS</tspan></text>
    </g>
    <text
       inkscape:export-ydpi="203.2"
       inkscape:export-xdpi="203.2"
       sodipodi:linespacing="125%"
       id="text4322"
       y="109.13568"
       x="43.692036"
       style="font-style:normal;font-weight:normal;font-size:40px;line-height:125%;font-family:sans-serif;letter-spacing:0px;word-spacing:0px;fill:#42a29a;fill-opacity:1;stroke:none;stroke-width:1px;stroke-linecap:butt;stroke-linejoin:miter;stroke-opacity:1"
       xml:space="preserve"><tspan
         style="font-style:normal;font-variant:normal;font-weight:normal;font-stretch:normal;font-family:Roboto;-inkscape-font-specification:Roboto;fill:#42a29a;fill-opacity:1"
         y="109.13568"
         x="43.692036"
         id="tspan4324"
         sodipodi:role="line"><tspan
   id="tspan4326"
   style="font-style:normal;font-variant:normal;font-weight:500;font-stretch:normal;font-family:Roboto;-inkscape-font-specification:'Roboto Medium';fill:#42a29a;fill-opacity:1">R</tspan>emote<tspan
   id="tspan4328"
   style="font-style:normal;font-variant:normal;font-weight:500;font-stretch:normal;font-family:Roboto;-inkscape-font-specification:'Roboto Medium';fill:#42a29a;fill-opacity:1">Q</tspan>uery</tspan></text>
  </g>
  <g
     id="g2303"
     transform="matrix(0.29003396,0,0,0.29003396,266.58872,568.00738)"
     inkscape:export-xdpi="203.2"
     inkscape:export-ydpi="203.2">
    <path
       id="path46"
       style="fill:#646464;fill-opacity:1"
       d="m 184.61344,61.929363 c 0,-14.56215 -4.15226,-22.03817 -12.45678,-22.44755 -3.30427,-0.15595 -6.53055,0.37039 -9.66912,1.58878 -2.505,0.89673 -4.19124,1.78372 -5.07823,2.68045 l 0,34.75812 c 5.31216,3.33351 10.02976,4.88329 14.14303,4.63962 8.70415,-0.57508 13.0611,-7.64172 13.0611,-21.21942 z m 10.24419,0.60432 c 0,7.39804 -1.73498,13.53871 -5.22444,18.422 -3.88909,5.5266 -9.27923,8.37275 -16.17042,8.52871 -5.1952,0.1657 -10.54635,-1.46207 -16.05346,-4.87355 l 0,31.590317 -8.90884,-3.17755 0,-70.120567 c 1.46206,-1.79346 3.34325,-3.3335 5.62407,-4.63961 5.30242,-3.08983 11.74524,-4.67861 19.32848,-4.75658 l 0.12671,0.12671 c 6.93018,-0.08773 12.27159,2.75843 16.02422,8.5287 3.4992,5.29267 5.25368,12.07665 5.25368,20.37142 z"
       inkscape:connector-curvature="0" />
    <path
       id="path48"
       style="fill:#646464;fill-opacity:1"
       d="m 249.30487,83.265743 c 0,9.92254 -0.9942,16.794237 -2.9826,20.615097 -1.99816,3.82086 -5.79952,6.8717 -11.41385,9.14277 -4.55189,1.79346 -9.47417,2.76817 -14.75709,2.93387 l -1.47181,-5.61432 c 5.37064,-0.73103 9.15252,-1.46207 11.34561,-2.1931 4.31796,-1.46206 7.28108,-3.70389 8.90884,-6.706 1.30611,-2.446517 1.94942,-7.115367 1.94942,-14.026057 l 0,-2.3198 c -6.09193,2.76817 -12.47628,4.14251 -19.15303,4.14251 -4.38619,0 -8.25579,-1.37434 -11.58929,-4.14251 -3.74289,-3.01186 -5.61433,-6.83272 -5.61433,-11.46258 l 0,-37.07793 8.90884,-3.05084 0,37.3216 c 0,3.98656 1.28662,7.0569 3.85985,9.21101 2.57323,2.1541 5.90674,3.18729 9.99077,3.10932 4.08403,-0.08773 8.46047,-1.66676 13.10983,-4.75658 l 0,-43.54025 8.90884,0 0,48.41379 z"
       inkscape:connector-curvature="0" />
    <path
       id="path50"
       style="fill:#646464;fill-opacity:1"
       d="m 284.08249,88.997033 c -1.06243,0.08772 -2.03714,0.12671 -2.93387,0.12671 -5.03925,0 -8.96733,-1.19889 -11.77449,-3.60642 -2.79742,-2.40753 -4.20099,-5.73129 -4.20099,-9.97127 l 0,-35.08953 -6.10168,0 0,-5.60457 6.10168,0 0,-14.88381 8.89909,-3.16781 0,18.05162 10.01026,0 0,5.60457 -10.01026,0 0,34.84585 c 0,3.34325 0.89673,5.71179 2.6902,7.09588 1.54004,1.14041 3.98656,1.79347 7.32006,1.95917 l 0,4.63961 z"
       inkscape:connector-curvature="0" />
    <path
       id="path52"
       style="fill:#646464;fill-opacity:1"
       d="m 338.02288,88.266003 -8.90884,0 0,-34.38773 c 0,-3.49921 -0.81876,-6.51106 -2.44651,-9.02581 -1.88119,-2.84615 -4.49342,-4.26923 -7.84641,-4.26923 -4.08404,0 -9.19152,2.15411 -15.32242,6.46233 l 0,41.22044 -8.90885,0 0,-82.1972101 8.90885,-2.80716 0,37.4385701 c 5.6923,-4.14251 11.91093,-6.21864 18.66566,-6.21864 4.7176,0 8.53846,1.58877 11.46258,4.75658 2.93388,3.1678 4.39594,7.11537 4.39594,11.83296 l 0,37.1949 0,0 z"
       inkscape:connector-curvature="0" />
    <path
       id="path54"
       style="fill:#646464;fill-opacity:1"
       d="m 385.37424,60.525783 c 0,-5.59483 -1.06242,-10.21495 -3.17755,-13.87011 -2.51474,-4.45442 -6.42332,-6.80347 -11.70625,-7.04715 -9.76658,0.56534 -14.64012,7.56375 -14.64012,20.97574 0,6.15042 1.01369,11.28713 3.06057,15.41015 2.61223,5.25368 6.53056,7.84641 11.755,7.75869 9.80557,-0.07798 14.70835,-7.81717 14.70835,-23.22732 z m 9.75685,0.05848 c 0,7.96338 -2.03714,14.5914 -6.10168,19.88407 -4.47391,5.92623 -10.65357,8.89909 -18.53897,8.89909 -7.81716,0 -13.90909,-2.97286 -18.30503,-8.89909 -3.98656,-5.29267 -5.97497,-11.92069 -5.97497,-19.88407 0,-7.48576 2.15411,-13.78238 6.46232,-18.90935 4.5519,-5.43888 10.53661,-8.16806 17.93464,-8.16806 7.39805,0 13.42174,2.72918 18.06137,8.16806 4.3082,5.12697 6.46232,11.42359 6.46232,18.90935 z"
       inkscape:connector-curvature="0" />
    <path
       id="path56"
       style="fill:#646464;fill-opacity:1"
       d="m 446.20583,88.266003 -8.90884,0 0,-36.33715 c 0,-3.98656 -1.19889,-7.09588 -3.59667,-9.33772 -2.39779,-2.23208 -5.59483,-3.31401 -9.58139,-3.22628 -4.23023,0.07798 -8.25579,1.46206 -12.07664,4.14251 l 0,44.75864 -8.90884,0 0,-45.86006 c 5.12697,-3.73313 9.84456,-6.16991 14.15276,-7.31032 4.06455,-1.06243 7.65148,-1.58877 10.74131,-1.58877 2.11512,0 4.10352,0.20469 5.97496,0.61406 3.49921,0.80901 6.34535,2.31006 8.53845,4.51291 2.44651,2.43677 3.6649,5.3609 3.6649,8.78212 l 0,40.85006 z"
       inkscape:connector-curvature="0" />
    <path
       id="path1948"
       style="fill:url(#linearGradient1478);fill-opacity:1"
       d="m 60.510156,6.3979729 c -4.583653,0.021298 -8.960939,0.4122177 -12.8125,1.09375 C 36.35144,9.4962267 34.291407,13.691825 34.291406,21.429223 l 0,10.21875 26.8125,0 0,3.40625 -26.8125,0 -10.0625,0 c -7.792459,0 -14.6157592,4.683717 -16.7500002,13.59375 -2.46182,10.212966 -2.5710151,16.586023 0,27.25 1.9059283,7.937852 6.4575432,13.593748 14.2500002,13.59375 l 9.21875,0 0,-12.25 c 0,-8.849902 7.657144,-16.656248 16.75,-16.65625 l 26.78125,0 c 7.454951,0 13.406253,-6.138164 13.40625,-13.625 l 0,-25.53125 c 0,-7.266339 -6.12998,-12.7247775 -13.40625,-13.9375001 -4.605987,-0.7667253 -9.385097,-1.1150483 -13.96875,-1.09375 z m -14.5,8.2187501 c 2.769547,0 5.03125,2.298646 5.03125,5.125 -2e-6,2.816336 -2.261703,5.09375 -5.03125,5.09375 -2.779476,-1e-6 -5.03125,-2.277415 -5.03125,-5.09375 -1e-6,-2.826353 2.251774,-5.125 5.03125,-5.125 z"
       inkscape:connector-curvature="0" />
    <path
       id="path1950"
       style="fill:url(#linearGradient1475);fill-opacity:1"
       d="m 91.228906,35.054223 0,11.90625 c 0,9.230755 -7.825895,16.999999 -16.75,17 l -26.78125,0 c -7.335833,0 -13.406249,6.278483 -13.40625,13.625 l 0,25.531247 c 0,7.26634 6.318588,11.54032 13.40625,13.625 8.487331,2.49561 16.626237,2.94663 26.78125,0 6.750155,-1.95439 13.406253,-5.88761 13.40625,-13.625 l 0,-10.218747 -26.78125,0 0,-3.40625 26.78125,0 13.406254,0 c 7.79246,0 10.69625,-5.435408 13.40624,-13.59375 2.79933,-8.398886 2.68022,-16.475776 0,-27.25 -1.92578,-7.757441 -5.60387,-13.59375 -13.40624,-13.59375 l -10.062504,0 z m -15.0625,64.65625 c 2.779478,3e-6 5.03125,2.277417 5.03125,5.093747 -2e-6,2.82635 -2.251775,5.125 -5.03125,5.125 -2.76955,0 -5.03125,-2.29865 -5.03125,-5.125 2e-6,-2.81633 2.261697,-5.093747 5.03125,-5.093747 z"
       inkscape:connector-curvature="0" />
    <path
       id="text3004"
       style="font-style:normal;font-weight:normal;font-size:15.16445827px;line-height:125%;font-family:'Bitstream Vera Sans';fill:#646464;fill-opacity:1;stroke:none;stroke-width:1px;stroke-linecap:butt;stroke-linejoin:miter;stroke-opacity:1"
       d="m 463.5544,26.909383 1.56195,0 0,-9.79624 3.70013,0 0,-1.16766 -8.96221,0 0,1.16766 3.70013,0 0,9.79624 m 6.64702,0 1.33447,0 0,-8.94703 2.89641,8.945906 1.48569,0 3.01816,-8.915576 0,8.9167 1.45579,0 0,-10.9639 -1.92589,0 -3.29831,9.392857 -2.81297,-9.392857 -2.15335,0 0,10.9639"
       inkscape:connector-curvature="0" />
    <path
       id="path1894"
       style="opacity:0.44382019;fill:url(#radialGradient1480);fill-opacity:1;fill-rule:nonzero;stroke:none;stroke-width:20;stroke-miterlimit:4;stroke-dasharray:none;stroke-opacity:1"
       transform="matrix(0.73406,0,0,0.809524,16.24958,27.00935)"
       d="m 110.46717,132.28575 a 48.948285,8.6066776 0 1 1 -97.896571,0 48.948285,8.6066776 0 1 1 97.896571,0 z"
       inkscape:connector-curvature="0" />
  </g>
</svg>
