<?xml version="1.0" encoding="UTF-8" standalone="no"?>
<!-- Created with Inkscape (http://www.inkscape.org/) -->

<svg
   xmlns:dc="http://purl.org/dc/elements/1.1/"
   xmlns:cc="http://creativecommons.org/ns#"
   xmlns:rdf="http://www.w3.org/1999/02/22-rdf-syntax-ns#"
   xmlns:svg="http://www.w3.org/2000/svg"
   xmlns="http://www.w3.org/2000/svg"
   xmlns:sodipodi="http://sodipodi.sourceforge.net/DTD/sodipodi-0.dtd"
   xmlns:inkscape="http://www.inkscape.org/namespaces/inkscape"
   width="210mm"
   height="297mm"
   viewBox="0 0 744.09448819 1052.3622047"
   id="svg2"
   version="1.1"
   inkscape:version="0.91 r13725"
   sodipodi:docname="RemoteQuery.svg">
    <defs id="defs4">
    <linearGradient id="linearGradient2795">
      <stop style="stop-color:#b8b8b8;stop-opacity:0.49803922" offset="0" id="stop2797"/>
      <stop style="stop-color:#7f7f7f;stop-opacity:0" offset="1" id="stop2799"/>
    </linearGradient>
    <linearGradient id="linearGradient2787">
      <stop style="stop-color:#7f7f7f;stop-opacity:0.5" offset="0" id="stop2789"/>
      <stop style="stop-color:#7f7f7f;stop-opacity:0" offset="1" id="stop2791"/>
    </linearGradient>
    <linearGradient id="linearGradient3676">
      <stop style="stop-color:#b2b2b2;stop-opacity:0.5" offset="0" id="stop3678"/>
      <stop style="stop-color:#b3b3b3;stop-opacity:0" offset="1" id="stop3680"/>
    </linearGradient>
    <linearGradient id="linearGradient3236">
      <stop style="stop-color:#f4f4f4;stop-opacity:1" offset="0" id="stop3244"/>
      <stop style="stop-color:#ffffff;stop-opacity:1" offset="1" id="stop3240"/>
    </linearGradient>
    <linearGradient id="linearGradient4671">
      <stop style="stop-color:#ffd43b;stop-opacity:1" offset="0" id="stop4673"/>
      <stop style="stop-color:#ffe873;stop-opacity:1" offset="1" id="stop4675"/>
    </linearGradient>
    <linearGradient id="linearGradient4689">
      <stop style="stop-color:#5a9fd4;stop-opacity:1" offset="0" id="stop4691"/>
      <stop style="stop-color:#306998;stop-opacity:1" offset="1" id="stop4693"/>
    </linearGradient>
    <linearGradient x1="224.23996" y1="144.75717" x2="-65.308502" y2="144.75717" id="linearGradient2987" xlink:href="#linearGradient4671" gradientUnits="userSpaceOnUse" gradientTransform="translate(100.2702,99.61116)"/>
    <linearGradient x1="172.94208" y1="77.475983" x2="26.670298" y2="76.313133" id="linearGradient2990" xlink:href="#linearGradient4689" gradientUnits="userSpaceOnUse" gradientTransform="translate(100.2702,99.61116)"/>
    <linearGradient x1="172.94208" y1="77.475983" x2="26.670298" y2="76.313133" id="linearGradient2587" xlink:href="#linearGradient4689" gradientUnits="userSpaceOnUse" gradientTransform="translate(100.2702,99.61116)"/>
    <linearGradient x1="224.23996" y1="144.75717" x2="-65.308502" y2="144.75717" id="linearGradient2589" xlink:href="#linearGradient4671" gradientUnits="userSpaceOnUse" gradientTransform="translate(100.2702,99.61116)"/>
    <linearGradient x1="172.94208" y1="77.475983" x2="26.670298" y2="76.313133" id="linearGradient2248" xlink:href="#linearGradient4689" gradientUnits="userSpaceOnUse" gradientTransform="translate(100.2702,99.61116)"/>
    <linearGradient x1="224.23996" y1="144.75717" x2="-65.308502" y2="144.75717" id="linearGradient2250" xlink:href="#linearGradient4671" gradientUnits="userSpaceOnUse" gradientTransform="translate(100.2702,99.61116)"/>
    <linearGradient x1="224.23996" y1="144.75717" x2="-65.308502" y2="144.75717" id="linearGradient2255" xlink:href="#linearGradient4671" gradientUnits="userSpaceOnUse" gradientTransform="matrix(0.562541,0,0,0.567972,-11.5974,-7.60954)"/>
    <linearGradient x1="172.94208" y1="76.176224" x2="26.670298" y2="76.313133" id="linearGradient2258" xlink:href="#linearGradient4689" gradientUnits="userSpaceOnUse" gradientTransform="matrix(0.562541,0,0,0.567972,-11.5974,-7.60954)"/>
    <radialGradient cx="61.518883" cy="132.28575" r="29.036913" fx="61.518883" fy="132.28575" id="radialGradient2801" xlink:href="#linearGradient2795" gradientUnits="userSpaceOnUse" gradientTransform="matrix(1,0,0,0.177966,0,108.7434)"/>
    <linearGradient x1="150.96111" y1="192.35176" x2="112.03144" y2="137.27299" id="linearGradient1475" xlink:href="#linearGradient4671" gradientUnits="userSpaceOnUse" gradientTransform="matrix(0.562541,0,0,0.567972,-9.399749,-5.305317)"/>
    <linearGradient x1="26.648937" y1="20.603781" x2="135.66525" y2="114.39767" id="linearGradient1478" xlink:href="#linearGradient4689" gradientUnits="userSpaceOnUse" gradientTransform="matrix(0.562541,0,0,0.567972,-9.399749,-5.305317)"/>
    <radialGradient cx="61.518883" cy="132.28575" r="29.036913" fx="61.518883" fy="132.28575" id="radialGradient1480" xlink:href="#linearGradient2795" gradientUnits="userSpaceOnUse" gradientTransform="matrix(2.382716e-8,-0.296405,1.43676,4.683673e-7,-128.544,150.5202)"/>
  </defs>
  <sodipodi:namedview
     id="base"
     pagecolor="#ffffff"
     bordercolor="#666666"
     borderopacity="1.0"
     inkscape:pageopacity="0.0"
     inkscape:pageshadow="2"
     inkscape:zoom="0.79725402"
     inkscape:cx="398.38766"
     inkscape:cy="567.57318"
     inkscape:document-units="px"
     inkscape:current-layer="layer1"
     showgrid="false"
     inkscape:window-width="1631"
     inkscape:window-height="1005"
     inkscape:window-x="70"
     inkscape:window-y="25"
     inkscape:window-maximized="0" />
  <metadata
     id="metadata7">
    <rdf:RDF>
      <cc:Work
         rdf:about="">
        <dc:format>image/svg+xml</dc:format>
        <dc:type
           rdf:resource="http://purl.org/dc/dcmitype/StillImage" />
        <dc:title></dc:title>
      </cc:Work>
    </rdf:RDF>
  </metadata>
  <g
     inkscape:label="Layer 1"
     inkscape:groupmode="layer"
     id="layer1">
    <text
       xml:space="preserve"
       style="font-style:normal;font-weight:normal;font-size:33.28589249px;line-height:125%;font-family:sans-serif;letter-spacing:0px;word-spacing:0px;fill:#42a29a;fill-opacity:1;stroke:none;stroke-width:1px;stroke-linecap:butt;stroke-linejoin:miter;stroke-opacity:1"
       x="61.595886"
       y="397.80426"
       id="text4136"
       sodipodi:linespacing="125%"
       inkscape:export-xdpi="203.2"
       inkscape:export-ydpi="203.2"><tspan
         sodipodi:role="line"
         id="tspan4138"
         x="61.595886"
         y="397.80426"
         style="font-style:normal;font-variant:normal;font-weight:normal;font-stretch:normal;font-family:Roboto;-inkscape-font-specification:Roboto;fill:#42a29a;fill-opacity:1"><tspan
   style="font-style:normal;font-variant:normal;font-weight:500;font-stretch:normal;font-family:Roboto;-inkscape-font-specification:'Roboto Medium';fill:#42a29a;fill-opacity:1"
   id="tspan4140">R</tspan>emote<tspan
   style="font-style:normal;font-variant:normal;font-weight:500;font-stretch:normal;font-family:Roboto;-inkscape-font-specification:'Roboto Medium';fill:#42a29a;fill-opacity:1"
   id="tspan4146">Q</tspan>uery</tspan></text>
    <text
       xml:space="preserve"
       style="font-style:normal;font-weight:normal;font-size:32.14788055px;line-height:125%;font-family:sans-serif;letter-spacing:0px;word-spacing:0px;fill:#000000;fill-opacity:1;stroke:none;stroke-width:1px;stroke-linecap:butt;stroke-linejoin:miter;stroke-opacity:1"
       x="81.409531"
       y="872.85156"
       id="text4148"
       sodipodi:linespacing="125%"
       transform="scale(0.95298922,1.0493298)"><tspan
         sodipodi:role="line"
         id="tspan4150"
         x="81.409531"
         y="872.85156"
         style="font-size:13.75px">Definition</tspan><tspan
         sodipodi:role="line"
         x="81.409531"
         y="890.03906"
         id="tspan4152"
         style="font-size:13.75px">#42a29a</tspan><tspan
         sodipodi:role="line"
         x="81.409531"
         y="907.22656"
         id="tspan4154"
         style="font-size:13.75px">Roboto</tspan></text>
    <g
       id="g4239"
       transform="matrix(0.39160668,0,0,0.39160668,333.17447,355.81982)"
       inkscape:export-xdpi="203.2"
       inkscape:export-ydpi="203.2">
      <g
         id="g4241">
        <polygon
           id="polygon4243"
           points="27.836,68.722 45.373,38.347 62.911,68.722 45.366,99.143 45.366,99.143 "
           style="fill:#59666c" />
        <polygon
           id="polygon4245"
           points="80.458,38.348 45.383,38.348 62.921,68.723 98.005,68.722 "
           style="fill:#bcae79" />
        <polygon
           id="polygon4247"
           points="115.523,99.157 97.986,129.532 80.449,99.157 97.993,68.736 97.993,68.736 "
           style="fill:#59666c" />
        <polygon
           id="polygon4249"
           points="62.901,129.529 97.977,129.529 80.438,99.154 45.354,99.157 "
           style="fill:#bcae79" />
      </g>
      <polygon
         id="polygon4251"
         points="141.156,98.705 141.156,71.771 169.514,71.771 169.514,98.705 179.113,98.705 179.113,38.702 169.514,38.702 169.514,63.503 141.156,63.503 141.156,38.702 131.468,38.702 131.468,98.705 "
         style="fill:#59666c" />
      <polygon
         id="polygon4253"
         points="206.918,98.705 206.918,38.702 197.228,38.702 197.228,98.705 "
         style="fill:#59666c" />
      <path
         id="path4255"
         d="m 264.938,80.57 c 0,-6.223 -3.644,-12.178 -11.467,-13.688 l 0,-0.179 c 6.134,-2.134 10.223,-7.556 10.223,-13.689 0,-9.245 -6.756,-14.578 -19.823,-14.578 -7.289,0 -14.134,0.178 -18.846,0.267 l 0,60.003 c 6.668,0.089 12.712,0.267 16.356,0.267 18.402,0 23.557,-10.578 23.557,-18.403 l 0,0 z M 253.56,54.525 c 0,6.044 -4.71,9.689 -13.688,9.689 -2.045,0 -3.556,0 -5.155,-0.089 l 0,-17.778 c 2.311,-0.089 4.889,-0.178 7.556,-0.178 8.532,0 11.287,3.467 11.287,8.356 l 0,0 z m 1.156,26.223 c 0,6.046 -4.178,10.312 -12.979,10.312 -3.111,0 -5.511,-0.18 -7.021,-0.445 l 0,-19.111 c 1.333,-0.09 4.443,-0.09 5.422,-0.09 8.445,0 14.578,2.49 14.578,9.334 l 0,0 z"
         inkscape:connector-curvature="0"
         style="fill:#59666c" />
      <polygon
         id="polygon4257"
         points="310.894,46.791 310.894,38.702 279.247,38.702 279.247,98.705 310.894,98.705 310.894,90.438 288.938,90.438 288.938,71.771 309.827,71.771 309.827,63.859 288.938,63.859 288.938,46.791 "
         style="fill:#59666c" />
      <path
         id="path4259"
         d="M 366.966,98.705 351.144,77.814 c -1.512,-1.955 -3.377,-4.267 -5.065,-6.4 9.777,-1.065 16.979,-7.199 16.979,-16.8 0,-11.912 -8.533,-16.268 -20.979,-16.268 -6.756,0 -11.733,0.089 -16.089,0.355 l 0,60.003 9.688,0 0,-25.956 0.444,0 18.668,25.957 12.176,0 0,0 z M 352.922,55.681 c 0,5.956 -4.711,9.956 -12.534,9.956 -2.134,0 -3.82,-0.089 -4.711,-0.178 l 0,-19.023 c 1.423,-0.089 3.201,-0.178 5.066,-0.178 8.09,0 12.179,2.845 12.179,9.423 l 0,0 z"
         inkscape:connector-curvature="0"
         style="fill:#59666c" />
      <path
         id="path4261"
         d="m 427.562,98.705 0,-60.003 -9.425,0 0,17.778 c 0,8.801 0.27,21.69 0.624,28.536 -2.223,-4.356 -4.622,-9.157 -7.291,-13.603 l -19.821,-32.712 -12.714,0 0,60.003 9.426,0 0,-20.178 c 0,-8.534 -0.179,-20.712 -0.535,-26.579 1.867,4 4,8.267 6.669,12.622 l 20.533,34.136 12.534,0 0,0 z"
         inkscape:connector-curvature="0"
         style="fill:#bcae79" />
      <path
         id="path4263"
         d="m 491.638,98.705 -21.778,-60.003 -10.758,0 -21.51,60.003 9.777,0 4.622,-13.246 24.268,0 4.622,13.246 10.757,0 0,0 z m -17.956,-20.979 -19.202,0 6.756,-18.578 c 1.155,-3.2 2.134,-6.489 2.758,-9.512 l 0.177,0 c 0.711,3.289 1.51,6.134 2.667,9.245 l 6.844,18.845 0,0 z"
         inkscape:connector-curvature="0"
         style="fill:#bcae79" />
      <polygon
         id="polygon4265"
         points="532.252,46.88 532.252,38.702 489.583,38.702 489.583,46.88 506.029,46.88 506.029,98.705 515.717,98.705 515.717,46.88 "
         style="fill:#bcae79" />
      <polygon
         id="polygon4267"
         points="573.922,46.791 573.922,38.702 542.274,38.702 542.274,98.705 573.922,98.705 573.922,90.438 551.965,90.438 551.965,71.771 572.854,71.771 572.854,63.859 551.965,63.859 551.965,46.791 "
         style="fill:#bcae79" />
    </g>
    <g
       id="g4317"
       transform="matrix(0.52592196,0,0,0.4120323,27.775416,105.81479)"
       inkscape:export-xdpi="203.2"
       inkscape:export-ydpi="203.2">
      <circle
         r="43.273537"
         cy="650.35736"
         cx="528.6897"
         id="path4308"
         style="opacity:1;fill:#ff0000;fill-opacity:1;fill-rule:nonzero;stroke:#000000;stroke-width:1;stroke-linecap:round;stroke-linejoin:round;stroke-miterlimit:22.5;stroke-dasharray:1, 4;stroke-dashoffset:0;stroke-opacity:0.63137255" />
      <text
         transform="scale(0.84569117,1.1824648)"
         sodipodi:linespacing="125%"
         id="text4290"
         y="581.42706"
         x="574.80914"
         style="font-style:normal;font-weight:normal;font-size:88.38076019px;line-height:125%;font-family:sans-serif;letter-spacing:0px;word-spacing:0px;fill:#ececec;fill-opacity:1;stroke:none;stroke-width:1px;stroke-linecap:butt;stroke-linejoin:miter;stroke-opacity:1"
         xml:space="preserve"><tspan
           style="font-style:normal;font-variant:normal;font-weight:normal;font-stretch:normal;font-family:Phosphate;-inkscape-font-specification:Phosphate;fill:#ececec"
           y="581.42706"
           x="574.80914"
           id="tspan4292"
           sodipodi:role="line">VS</tspan></text>
    </g>
    <text
       inkscape:export-ydpi="203.2"
       inkscape:export-xdpi="203.2"
       sodipodi:linespacing="125%"
       id="text4322"
       y="109.13568"
       x="43.692036"
       style="font-style:normal;font-weight:normal;font-size:40px;line-height:125%;font-family:sans-serif;letter-spacing:0px;word-spacing:0px;fill:#42a29a;fill-opacity:1;stroke:none;stroke-width:1px;stroke-linecap:butt;stroke-linejoin:miter;stroke-opacity:1"
       xml:space="preserve"><tspan
         style="font-style:normal;font-variant:normal;font-weight:normal;font-stretch:normal;font-family:Roboto;-inkscape-font-specification:Roboto;fill:#42a29a;fill-opacity:1"
         y="109.13568"
         x="43.692036"
         id="tspan4324"
         sodipodi:role="line"><tspan
   id="tspan4326"
   style="font-style:normal;font-variant:normal;font-weight:500;font-stretch:normal;font-family:Roboto;-inkscape-font-specification:'Roboto Medium';fill:#42a29a;fill-opacity:1">R</tspan>emote<tspan
   id="tspan4328"
   style="font-style:normal;font-variant:normal;font-weight:500;font-stretch:normal;font-family:Roboto;-inkscape-font-specification:'Roboto Medium';fill:#42a29a;fill-opacity:1">Q</tspan>uery</tspan></text>
  </g>
  
  
  <g id="g2303">
    <path id="path46" style="fill:#646464;fill-opacity:1" d="M 184.61344,61.929363 C 184.61344,47.367213 180.46118,39.891193 172.15666,39.481813 C 168.85239,39.325863 165.62611,39.852203 162.48754,41.070593 C 159.98254,41.967323 158.2963,42.854313 157.40931,43.751043 L 157.40931,78.509163 C 162.72147,81.842673 167.43907,83.392453 171.55234,83.148783 C 180.25649,82.573703 184.61344,75.507063 184.61344,61.929363 z M 194.85763,62.533683 C 194.85763,69.931723 193.12265,76.072393 189.63319,80.955683 C 185.7441,86.482283 180.35396,89.328433 173.46277,89.484393 C 168.26757,89.650093 162.91642,88.022323 157.40931,84.610843 L 157.40931,116.20116 L 148.50047,113.02361 L 148.50047,42.903043 C 149.96253,41.109583 151.84372,39.569543 154.12454,38.263433 C 159.42696,35.173603 165.86978,33.584823 173.45302,33.506853 L 173.57973,33.633563 C 180.50991,33.545833 185.85132,36.391993 189.60395,42.162263 C 193.10315,47.454933 194.85763,54.238913 194.85763,62.533683 z "/>
    <path id="path48" style="fill:#646464;fill-opacity:1" d="M 249.30487,83.265743 C 249.30487,93.188283 248.31067,100.05998 246.32227,103.88084 C 244.32411,107.7017 240.52275,110.75254 234.90842,113.02361 C 230.35653,114.81707 225.43425,115.79178 220.15133,115.95748 L 218.67952,110.34316 C 224.05016,109.61213 227.83204,108.88109 230.02513,108.15006 C 234.34309,106.688 237.30621,104.44617 238.93397,101.44406 C 240.24008,98.997543 240.88339,94.328693 240.88339,87.418003 L 240.88339,85.098203 C 234.79146,87.866373 228.40711,89.240713 221.73036,89.240713 C 217.34417,89.240713 213.47457,87.866373 210.14107,85.098203 C 206.39818,82.086343 204.52674,78.265483 204.52674,73.635623 L 204.52674,36.557693 L 213.43558,33.506853 L 213.43558,70.828453 C 213.43558,74.815013 214.7222,77.885353 217.29543,80.039463 C 219.86866,82.193563 223.20217,83.226753 227.2862,83.148783 C 231.37023,83.061053 235.74667,81.482023 240.39603,78.392203 L 240.39603,34.851953 L 249.30487,34.851953 L 249.30487,83.265743 z "/>
    <path id="path50" style="fill:#646464;fill-opacity:1" d="M 284.08249,88.997033 C 283.02006,89.084753 282.04535,89.123743 281.14862,89.123743 C 276.10937,89.123743 272.18129,87.924853 269.37413,85.517323 C 266.57671,83.109793 265.17314,79.786033 265.17314,75.546053 L 265.17314,40.456523 L 259.07146,40.456523 L 259.07146,34.851953 L 265.17314,34.851953 L 265.17314,19.968143 L 274.07223,16.800333 L 274.07223,34.851953 L 284.08249,34.851953 L 284.08249,40.456523 L 274.07223,40.456523 L 274.07223,75.302373 C 274.07223,78.645623 274.96896,81.014163 276.76243,82.398253 C 278.30247,83.538663 280.74899,84.191723 284.08249,84.357423 L 284.08249,88.997033 z "/>
    <path id="path52" style="fill:#646464;fill-opacity:1" d="M 338.02288,88.266003 L 329.11404,88.266003 L 329.11404,53.878273 C 329.11404,50.379063 328.29528,47.367213 326.66753,44.852463 C 324.78634,42.006313 322.17411,40.583233 318.82112,40.583233 C 314.73708,40.583233 309.6296,42.737343 303.4987,47.045563 L 303.4987,88.266003 L 294.58985,88.266003 L 294.58985,6.0687929 L 303.4987,3.2616329 L 303.4987,40.700203 C 309.191,36.557693 315.40963,34.481563 322.16436,34.481563 C 326.88196,34.481563 330.70282,36.070333 333.62694,39.238143 C 336.56082,42.405943 338.02288,46.353513 338.02288,51.071103 L 338.02288,88.266003 L 338.02288,88.266003 z "/>
    <path id="path54" style="fill:#646464;fill-opacity:1" d="M 385.37424,60.525783 C 385.37424,54.930953 384.31182,50.310833 382.19669,46.655673 C 379.68195,42.201253 375.77337,39.852203 370.49044,39.608523 C 360.72386,40.173863 355.85032,47.172273 355.85032,60.584263 C 355.85032,66.734683 356.86401,71.871393 358.91089,75.994413 C 361.52312,81.248093 365.44145,83.840823 370.66589,83.753103 C 380.47146,83.675123 385.37424,75.935933 385.37424,60.525783 z M 395.13109,60.584263 C 395.13109,68.547643 393.09395,75.175663 389.02941,80.468333 C 384.5555,86.394563 378.37584,89.367423 370.49044,89.367423 C 362.67328,89.367423 356.58135,86.394563 352.18541,80.468333 C 348.19885,75.175663 346.21044,68.547643 346.21044,60.584263 C 346.21044,53.098503 348.36455,46.801883 352.67276,41.674913 C 357.22466,36.236033 363.20937,33.506853 370.6074,33.506853 C 378.00545,33.506853 384.02914,36.236033 388.66877,41.674913 C 392.97697,46.801883 395.13109,53.098503 395.13109,60.584263 z "/>
    <path id="path56" style="fill:#646464;fill-opacity:1" d="M 446.20583,88.266003 L 437.29699,88.266003 L 437.29699,51.928853 C 437.29699,47.942293 436.0981,44.832973 433.70032,42.591133 C 431.30253,40.359053 428.10549,39.277123 424.11893,39.364853 C 419.8887,39.442833 415.86314,40.826913 412.04229,43.507363 L 412.04229,88.266003 L 403.13345,88.266003 L 403.13345,42.405943 C 408.26042,38.672813 412.97801,36.236033 417.28621,35.095623 C 421.35076,34.033193 424.93769,33.506853 428.02752,33.506853 C 430.14264,33.506853 432.13104,33.711543 434.00248,34.120913 C 437.50169,34.929923 440.34783,36.430973 442.54093,38.633823 C 444.98744,41.070593 446.20583,43.994723 446.20583,47.415943 L 446.20583,88.266003 z "/>
    <path id="path1948" style="fill:url(#linearGradient1478);fill-opacity:1" d="M 60.510156,6.3979729 C 55.926503,6.4192712 51.549217,6.8101906 47.697656,7.4917229 C 36.35144,9.4962267 34.291407,13.691825 34.291406,21.429223 L 34.291406,31.647973 L 61.103906,31.647973 L 61.103906,35.054223 L 34.291406,35.054223 L 24.228906,35.054223 C 16.436447,35.054223 9.6131468,39.73794 7.4789058,48.647973 C 5.0170858,58.860939 4.9078907,65.233996 7.4789058,75.897973 C 9.3848341,83.835825 13.936449,89.491721 21.728906,89.491723 L 30.947656,89.491723 L 30.947656,77.241723 C 30.947656,68.391821 38.6048,60.585475 47.697656,60.585473 L 74.478906,60.585473 C 81.933857,60.585473 87.885159,54.447309 87.885156,46.960473 L 87.885156,21.429223 C 87.885156,14.162884 81.755176,8.7044455 74.478906,7.4917229 C 69.872919,6.7249976 65.093809,6.3766746 60.510156,6.3979729 z M 46.010156,14.616723 C 48.779703,14.616723 51.041406,16.915369 51.041406,19.741723 C 51.041404,22.558059 48.779703,24.835473 46.010156,24.835473 C 43.23068,24.835472 40.978906,22.558058 40.978906,19.741723 C 40.978905,16.91537 43.23068,14.616723 46.010156,14.616723 z "/>
    <path id="path1950" style="fill:url(#linearGradient1475);fill-opacity:1" d="M 91.228906,35.054223 L 91.228906,46.960473 C 91.228906,56.191228 83.403011,63.960472 74.478906,63.960473 L 47.697656,63.960473 C 40.361823,63.960473 34.291407,70.238956 34.291406,77.585473 L 34.291406,103.11672 C 34.291406,110.38306 40.609994,114.65704 47.697656,116.74172 C 56.184987,119.23733 64.323893,119.68835 74.478906,116.74172 C 81.229061,114.78733 87.885159,110.85411 87.885156,103.11672 L 87.885156,92.897973 L 61.103906,92.897973 L 61.103906,89.491723 L 87.885156,89.491723 L 101.29141,89.491723 C 109.08387,89.491723 111.98766,84.056315 114.69765,75.897973 C 117.49698,67.499087 117.37787,59.422197 114.69765,48.647973 C 112.77187,40.890532 109.09378,35.054223 101.29141,35.054223 L 91.228906,35.054223 z M 76.166406,99.710473 C 78.945884,99.710476 81.197656,101.98789 81.197656,104.80422 C 81.197654,107.63057 78.945881,109.92922 76.166406,109.92922 C 73.396856,109.92922 71.135156,107.63057 71.135156,104.80422 C 71.135158,101.98789 73.396853,99.710473 76.166406,99.710473 z "/>
    <path id="text3004" style="font-size:15.16445827px;font-style:normal;font-weight:normal;line-height:125%;fill:#646464;fill-opacity:1;stroke:none;stroke-width:1px;stroke-linecap:butt;stroke-linejoin:miter;stroke-opacity:1;font-family:Bitstream Vera Sans" d="M 463.5544,26.909383 L 465.11635,26.909383 L 465.11635,17.113143 L 468.81648,17.113143 L 468.81648,15.945483 L 459.85427,15.945483 L 459.85427,17.113143 L 463.5544,17.113143 L 463.5544,26.909383 M 470.20142,26.909383 L 471.53589,26.909383 L 471.53589,17.962353 L 474.4323,26.908259 L 475.91799,26.908259 L 478.93615,17.992683 L 478.93615,26.909383 L 480.39194,26.909383 L 480.39194,15.945483 L 478.46605,15.945483 L 475.16774,25.33834 L 472.35477,15.945483 L 470.20142,15.945483 L 470.20142,26.909383"/>
    <path id="path1894" style="opacity:0.44382019;fill:url(#radialGradient1480);fill-opacity:1;fill-rule:nonzero;stroke:none;stroke-width:20;stroke-miterlimit:4;stroke-dasharray:none;stroke-opacity:1" transform="matrix(0.73406,0,0,0.809524,16.24958,27.00935)" d="M 110.46717 132.28575 A 48.948284 8.6066771 0 1 1  12.570599,132.28575 A 48.948284 8.6066771 0 1 1  110.46717 132.28575 z"/>
  </g>
</svg>
